<?xml version="1.0" encoding="UTF-8" standalone="no"?>
<svg xmlns:inkscape="http://www.inkscape.org/namespaces/inkscape" xmlns:sodipodi="http://sodipodi.sourceforge.net/DTD/sodipodi-0.dtd" xmlns="http://www.w3.org/2000/svg" xmlns:svg="http://www.w3.org/2000/svg" width="349.677" height="91.547" viewBox="0 0 349.677 91.547" version="1.1" id="svg213" sodipodi:docname="DeLaJoyaPersonalShopper-white.svg" inkscape:version="1.1.1 (3bf5ae0d25, 2021-09-20)">
  <defs id="defs6">
    <clipPath id="clip-path">
      <path id="Trazado_71" data-name="Trazado 71" d="M355,165h10v12H355Zm0,0"></path>
    </clipPath>
    <clipPath id="clip-path-2">
      <path id="Trazado_70" data-name="Trazado 70" d="M356.1,165.133l8.785,1.961-2.449,10.98-8.786-1.961Zm0,0"></path>
    </clipPath>
  </defs>
  <g id="BRANDING_SEBASTIÁN_1_1_" data-name="BRANDING SEBASTIÁN (1) (1)" transform="translate(-15.323 -148.181)" style="fill:#ffffff">
    <g id="Grupo_156" data-name="Grupo 156" style="fill:#ffffff">
      <g id="Grupo_155" data-name="Grupo 155" transform="translate(16.086 178.634)" style="fill:#ffffff">
        <g id="Grupo_154" data-name="Grupo 154" style="fill:#ffffff">
          <path id="Trazado_55" data-name="Trazado 55" d="M29.012.793c.359,0,.793-.5,1.227-.937.141-.215.141-.43,0-.5C38.8-10.437,44.563-18.215,44.563-21.023a1.345,1.345,0,0,0-1.512-1.437c-2.734,0-9.719,6.262-16.27,13.246-.434.5-.574.289-.215-.145,2.23-3.313,3.742-5.977,3.742-7.629,0-1.152-.719-1.8-2.016-1.8-1.727,0-4.031,1.152-6.48,2.949a12.7,12.7,0,0,0,1.441-4.82,2.318,2.318,0,0,0-2.3-2.594c-3.023,0-6.48,2.231-10.078,6.336-.07.07-.07.145-.07.289a.338.338,0,0,0,.359.359c.144,0,.285,0,.359-.145,3.453-3.887,6.7-5.976,9.43-5.976.938,0,1.441.648,1.441,1.73a13.966,13.966,0,0,1-2.016,5.9C14.184-9.863,7.633-2.086,7.633-.434a.661.661,0,0,0,.719.648c1.945,0,9-7.848,12.672-14.469,2.734-2.16,5.4-3.672,7.27-3.672.793,0,1.152.289,1.152.938,0,2.3-3.6,7.27-6.406,11.23-.867,1.223-1.656,2.3-2.234,3.168a.388.388,0,0,0,.144.574.378.378,0,0,0,.578-.07C27.5-9.5,39.6-21.668,43.051-21.668c.5,0,.648.215.648.645,0,2.519-5.977,10.586-14.613,20.449a1.825,1.825,0,0,0-.5.863C28.582.574,28.727.793,29.012.793ZM8.926-.793c-.359.145-.359,0-.215-.285.938-1.875,4.68-6.336,8.855-10.227a12.93,12.93,0,0,1,1.727-1.437C15.981-7.633,10.941-1.945,8.926-.793Zm0,0" fill="#a73a64" style="fill:#ffffff"></path>
        </g>
      </g>
    </g>
    <g id="Grupo_159" data-name="Grupo 159" style="fill:#ffffff">
      <g id="Grupo_158" data-name="Grupo 158" transform="translate(57.696 178.634)" style="fill:#ffffff">
        <g id="Grupo_157" data-name="Grupo 157" style="fill:#ffffff">
          <path id="Trazado_56" data-name="Trazado 56" d="M9.719.07c2.52,0,9.145-2.734,13.176-5.613a.561.561,0,0,0,.145-.359.339.339,0,0,0-.363-.359c-.141,0-.215,0-.285.07-4.031,3.023-10.441,5.4-12.672,5.4-1.223,0-1.8-.359-1.8-1.293,0-1.371,1.152-3.1,2.016-4.32.5-.723.793-1.152.793-1.441a.491.491,0,0,0-.5-.5c-.359,0-1.223.578-2.734,1.727A1.924,1.924,0,0,0,5.473-7.7c-2.449,0-8.93,4.031-8.93,6.48A1.141,1.141,0,0,0-2.16-.07c2.016,0,6.48-3.312,9.5-5.473.574-.434,1.078-.793,1.438-1.008.145-.145.363-.074.145.145a8.7,8.7,0,0,0-1.8,4.32Q7.129.07,9.719.07ZM-2.16-.937c-.359,0-.5-.07-.5-.285,0-1.73,5.688-5.688,8.137-5.688.789,0,1.008.145,1.293.719C3.816-3.961-.434-.937-2.16-.937Zm0,0" fill="#a73a64" style="fill:#ffffff"></path>
        </g>
      </g>
    </g>
    <g id="Grupo_162" data-name="Grupo 162" style="fill:#ffffff">
      <g id="Grupo_161" data-name="Grupo 161" transform="translate(78.716 178.634)" style="fill:#ffffff">
        <g id="Grupo_160" data-name="Grupo 160" style="fill:#ffffff">
          <path id="Trazado_57" data-name="Trazado 57" d="M.938,7.773c4.316,0,16.844-8.133,24.043-13.316a.541.541,0,0,0,.145-.359c0-.219-.145-.359-.43-.359a.274.274,0,0,0-.219.07C17.352-1.008,5.039,6.91.938,6.91.07,6.91-.215,6.625-.215,5.9c0-2.086,3.672-5.687,7.2-9.141,3.094-3.1,6.191-6.121,6.191-7.848,0-.863-1.008-1.441-2.234-2.594C13.68-16.629,15.7-19.293,15.7-20.3a.777.777,0,0,0-.793-.863c-2.23,0-7.269,3.813-7.269,5.613,0,.649.719,1.152,2.016,2.016A62.353,62.353,0,0,1,1.367-6.191a.549.549,0,0,0-.145.289c0,.285.145.43.359.43.145,0,.219,0,.289-.07a66.229,66.229,0,0,0,8.5-7.559c1.441,1.008,1.945,1.512,1.945,2.016,0,1.367-2.809,4.176-5.906,7.2C2.879-.359-1.008,3.457-1.008,5.9A1.7,1.7,0,0,0,.938,7.773Zm9.285-21.883c-1.3-.863-1.727-1.3-1.727-1.441,0-1.223,4.1-4.32,6.047-4.68.215-.07.359.074.289.289C14.328-18.719,11.734-15.7,10.223-14.109Zm0,0" fill="#a73a64" style="fill:#ffffff"></path>
        </g>
      </g>
    </g>
    <g id="Grupo_165" data-name="Grupo 165" style="fill:#ffffff">
      <g id="Grupo_164" data-name="Grupo 164" transform="translate(101.824 178.634)" style="fill:#ffffff">
        <g id="Grupo_163" data-name="Grupo 163" style="fill:#ffffff">
          <path id="Trazado_58" data-name="Trazado 58" d="M-15.191,18.285c.359,0,.793-.574,1.152-1.152.145-.215.145-.43,0-.5A299.119,299.119,0,0,1,10.438-15.766c6.266-.289,12.672-.289,18.793-.074.285,0,.43-.141.43-.359a.4.4,0,0,0-.359-.43c-5.977-.219-12.094-.219-18.07,0,3.887-4.535,7.777-8.93,11.664-13.105a.433.433,0,0,0,.07-.285.414.414,0,0,0-.43-.434.548.548,0,0,0-.289.145c-4.031,4.391-8.137,9-12.168,13.75-6.477.215-12.742.719-18.355,1.441a.454.454,0,0,0-.363.43.466.466,0,0,0,.434.434h.07c5.328-.719,11.3-1.223,17.5-1.512a303.515,303.515,0,0,0-24.7,32.828c-.07.145-.141.289-.215.434l-.07.07C-15.766,18-15.7,18.285-15.191,18.285Zm0,0" fill="#a73a64" style="fill:#ffffff"></path>
        </g>
      </g>
    </g>
    <g id="Grupo_168" data-name="Grupo 168" style="fill:#ffffff">
      <g id="Grupo_167" data-name="Grupo 167" transform="translate(112.551 178.634)" style="fill:#ffffff">
        <g id="Grupo_166" data-name="Grupo 166" style="fill:#ffffff">
          <path id="Trazado_59" data-name="Trazado 59" d="M9.719.07c2.52,0,9.145-2.734,13.176-5.613a.561.561,0,0,0,.145-.359.339.339,0,0,0-.363-.359c-.141,0-.215,0-.285.07-4.031,3.023-10.441,5.4-12.672,5.4-1.223,0-1.8-.359-1.8-1.293,0-1.371,1.152-3.1,2.016-4.32.5-.723.793-1.152.793-1.441a.491.491,0,0,0-.5-.5c-.359,0-1.223.578-2.734,1.727A1.924,1.924,0,0,0,5.473-7.7c-2.449,0-8.93,4.031-8.93,6.48A1.141,1.141,0,0,0-2.16-.07c2.016,0,6.48-3.312,9.5-5.473.574-.434,1.078-.793,1.438-1.008.145-.145.363-.074.145.145a8.7,8.7,0,0,0-1.8,4.32Q7.129.07,9.719.07ZM-2.16-.937c-.359,0-.5-.07-.5-.285,0-1.73,5.688-5.688,8.137-5.688.789,0,1.008.145,1.293.719C3.816-3.961-.434-.937-2.16-.937Zm0,0" fill="#a73a64" style="fill:#ffffff"></path>
        </g>
      </g>
    </g>
    <g id="Grupo_171" data-name="Grupo 171" style="fill:#ffffff">
      <g id="Grupo_170" data-name="Grupo 170" transform="translate(149.481 178.634)" style="fill:#ffffff">
        <g id="Grupo_169" data-name="Grupo 169" style="fill:#ffffff">
          <path id="Trazado_60" data-name="Trazado 60" d="M5.039,4.246c10.727,0,23.973-11.516,25.918-22.387.648-3.816-1.586-6.121-5.758-6.121-8.93,0-18.5,7.7-22.105,12.957a.738.738,0,0,0-.07.219.463.463,0,0,0,.434.43.4.4,0,0,0,.359-.215c3.527-5.184,12.742-12.6,21.383-12.6,3.668,0,5.543,1.941,4.895,5.184C28.293-7.773,15.336,3.383,5.039,3.383c-2.664,0-4.031-.934-3.742-2.52C1.656-1.078,4.105-3.6,8.063-5.4c-1.8,2.445-3.168,4.391-3.6,5.184A.257.257,0,0,0,4.391,0a.469.469,0,0,0,.434.434A.6.6,0,0,0,5.184.215,51.442,51.442,0,0,1,9.574-6.047a24.866,24.866,0,0,1,8.785-1.512,25.171,25.171,0,0,1,4.605.43h.074a.462.462,0,0,0,.43-.43.462.462,0,0,0-.359-.434,26.655,26.655,0,0,0-4.75-.359A26.633,26.633,0,0,0,10.438-7.2,126.344,126.344,0,0,1,21.094-19.437a.385.385,0,0,0,.145-.289.415.415,0,0,0-.434-.43.544.544,0,0,0-.285.141A128.731,128.731,0,0,0,9-6.7C4.105-4.75.938-1.656.5.719.145,2.879,1.871,4.246,5.039,4.246Zm0,0" fill="#a73a64" style="fill:#ffffff"></path>
        </g>
      </g>
    </g>
    <g id="Grupo_174" data-name="Grupo 174" style="fill:#ffffff">
      <g id="Grupo_173" data-name="Grupo 173" transform="translate(179.428 178.634)" style="fill:#ffffff">
        <g id="Grupo_172" data-name="Grupo 172" style="fill:#ffffff">
          <path id="Trazado_61" data-name="Trazado 61" d="M2.375.215C4.609.215,11.59-1.8,16.629-5.543a.4.4,0,0,0,.219-.359.4.4,0,0,0-.434-.359.266.266,0,0,0-.215.07C11.231-2.59,4.465-.648,2.375-.648c-1.656,0-2.52-.43-2.52-1.367a5.275,5.275,0,0,1,1.656-3.1,4.045,4.045,0,0,0,1.8.289c1.3,0,2.949-1.078,2.949-2.016A1.14,1.14,0,0,0,4.969-7.992c-2.379,0-5.977,3.6-5.977,5.977C-1.008-.574.289.215,2.375.215Zm.938-5.832A4.625,4.625,0,0,1,2.16-5.758,4.86,4.86,0,0,1,4.969-7.129c.359,0,.5.074.5.289C5.473-6.406,4.105-5.617,3.313-5.617Zm0,0" fill="#a73a64" style="fill:#ffffff"></path>
        </g>
      </g>
    </g>
    <g id="Grupo_177" data-name="Grupo 177" style="fill:#ffffff">
      <g id="Grupo_176" data-name="Grupo 176" transform="translate(210.095 178.634)" style="fill:#ffffff">
        <g id="Grupo_175" data-name="Grupo 175" style="fill:#ffffff">
          <path id="Trazado_62" data-name="Trazado 62" d="M23.9,1.727c3.313,0,7.125-2.16,11.949-6.98.074-.074.145-.145.145-.219a.414.414,0,0,0-.434-.43.365.365,0,0,0-.285.145C30.6-1.078,27,.863,23.9.863,20.445.863,16.848-.5,13.461-2.016c4.106-2.23,8.066-5.832,11.52-9.43,8.352-2.809,13.969-8.426,13.969-11.016a1.25,1.25,0,0,0-1.367-1.367c-2.234,0-5.473,3.527-9.359,7.7-1.152,1.293-2.449,2.664-3.746,4.031A32.02,32.02,0,0,1,9.719-10.941h-.07c-.219,0-.363.141-.363.43,0,.144.145.359.289.359a32.066,32.066,0,0,0,13.75-.789c-3.383,3.309-6.98,6.551-10.871,8.492-5.828-2.664-7.559-3.383-9.5-3.383-2.016,0-3.387,1.008-3.387,2.52,0,2.16,2.379,3.527,5.906,3.527a15.3,15.3,0,0,0,6.98-1.8C16.125.07,20.086,1.727,23.9,1.727Zm2.23-14.4C27.07-13.68,28-14.613,28.8-15.551c3.887-4.176,6.91-7.414,8.785-7.414.43,0,.574.145.574.5C38.156-20.23,33.406-15.477,26.133-12.672ZM5.473-.648C2.375-.648.434-1.656.434-3.312c0-1.008.934-1.656,2.52-1.656,1.656,0,3.453.648,8.566,2.953A15.364,15.364,0,0,1,5.473-.648Zm0,0" fill="#a73a64" style="fill:#ffffff"></path>
        </g>
      </g>
    </g>
    <g id="Grupo_180" data-name="Grupo 180" style="fill:#ffffff">
      <g id="Grupo_179" data-name="Grupo 179" transform="translate(244.361 178.634)" style="fill:#ffffff">
        <g id="Grupo_178" data-name="Grupo 178" style="fill:#ffffff">
          <path id="Trazado_63" data-name="Trazado 63" d="M9.719.07c2.52,0,9.145-2.734,13.176-5.613a.561.561,0,0,0,.145-.359.339.339,0,0,0-.363-.359c-.141,0-.215,0-.285.07-4.031,3.023-10.441,5.4-12.672,5.4-1.223,0-1.8-.359-1.8-1.293,0-1.371,1.152-3.1,2.016-4.32.5-.723.793-1.152.793-1.441a.491.491,0,0,0-.5-.5c-.359,0-1.223.578-2.734,1.727A1.924,1.924,0,0,0,5.473-7.7c-2.449,0-8.93,4.031-8.93,6.48A1.141,1.141,0,0,0-2.16-.07c2.016,0,6.48-3.312,9.5-5.473.574-.434,1.078-.793,1.438-1.008.145-.145.363-.074.145.145a8.7,8.7,0,0,0-1.8,4.32Q7.129.07,9.719.07ZM-2.16-.937c-.359,0-.5-.07-.5-.285,0-1.73,5.688-5.688,8.137-5.688.789,0,1.008.145,1.293.719C3.816-3.961-.434-.937-2.16-.937Zm0,0" fill="#a73a64" style="fill:#ffffff"></path>
        </g>
      </g>
    </g>
    <g id="Grupo_183" data-name="Grupo 183" style="fill:#ffffff">
      <g id="Grupo_182" data-name="Grupo 182" transform="translate(281.291 178.634)" style="fill:#ffffff">
        <g id="Grupo_181" data-name="Grupo 181" style="fill:#ffffff">
          <path id="Trazado_64" data-name="Trazado 64" d="M-8.137,11.59C-3.094,11.59,2.879,7.7,9.789.359a6.662,6.662,0,0,1,3.242,3.746.485.485,0,0,0,.43.285.4.4,0,0,0,.363-.43V3.816A7.485,7.485,0,0,0,10.367-.289c1.223-1.367,2.519-2.8,3.816-4.391C18-9.285,23.758-17.781,23.758-21.6c0-1.726-1.223-2.664-3.383-2.664-2.664,0-6.769,1.656-9.719,4.031C6.7-17.207,3.527-12.957,3.094-10.223v.07a.4.4,0,0,0,.363.434.464.464,0,0,0,.43-.359c.434-2.52,3.527-6.551,7.273-9.5,2.879-2.23,6.7-3.887,9.215-3.887,1.727,0,2.52.649,2.52,1.871,0,3.527-5.543,11.809-9.359,16.344C12.238-3.6,10.871-2.086,9.574-.648A11.4,11.4,0,0,0,4.68-1.656C-1.871-1.656-11.3,3.672-11.3,9-11.3,10.582-10.152,11.59-8.137,11.59Zm0-.789c-1.582,0-2.3-.723-2.3-1.8,0-4.465,8.277-9.793,15.117-9.793A11.331,11.331,0,0,1,9-.07C2.3,6.984-3.383,10.8-8.137,10.8Zm0,0" fill="#a73a64" style="fill:#ffffff"></path>
        </g>
      </g>
    </g>
    <g id="Grupo_186" data-name="Grupo 186" style="fill:#ffffff">
      <g id="Grupo_185" data-name="Grupo 185" transform="translate(302.312 178.634)" style="fill:#ffffff">
        <g id="Grupo_184" data-name="Grupo 184" style="fill:#ffffff">
          <path id="Trazado_65" data-name="Trazado 65" d="M-.434.574c2.3,0,4.539-3.887,4.105-6.7,0-.141.07-.285.215-.141,4.176,2.59,9.719,2.879,13.465.719a.475.475,0,0,0,.285-.359.4.4,0,0,0-.43-.359h-.219C13.535-4.246,8.5-4.535,4.609-6.84c-.145-.07-.145-.145,0-.215.07-.074.215-.074.285-.145.219,0,.289-.145.289-.359a.406.406,0,0,0-.359-.434c-.074,0-.145,0-.145.074a4.094,4.094,0,0,0-1.008.359c-.145.07-.145.07-.289,0a.681.681,0,0,0-.719.43c0,.074-.074.074-.074.145C.07-5.473-1.8-3.094-1.8-1.078-1.8-.07-1.3.574-.434.574Zm0-.789c-.359,0-.574-.289-.574-.863,0-1.656,1.656-3.746,3.887-5.113C3.238-3.887,1.3-.215-.434-.215Zm0,0" fill="#a73a64" style="fill:#ffffff"></path>
        </g>
      </g>
    </g>
    <g id="Grupo_189" data-name="Grupo 189" style="fill:#ffffff">
      <g id="Grupo_188" data-name="Grupo 188" transform="translate(317.862 178.634)" style="fill:#ffffff">
        <g id="Grupo_187" data-name="Grupo 187" style="fill:#ffffff">
          <path id="Trazado_66" data-name="Trazado 66" d="M-24.477,29.445c4.824,0,18.285-11.016,27.57-21.238,1.082-1.223,2.16-2.449,3.1-3.742C12.887.5,18.645-3.383,21.813-5.473a.533.533,0,0,0,.145-.359.4.4,0,0,0-.43-.359.274.274,0,0,0-.219.07C17.926-3.742,13.461-.793,7.414,2.734c3.387-4.68,5.473-9,5.473-10.148,0-.578-.289-.937-.863-.937-.5,0-1.441.648-4.391,2.809C4.609-3.238.863-.434-.648-.434c-.359,0-.43-.07-.43-.285,0-1.082,3.094-5.258,5.254-7.129a.378.378,0,0,0,.145-.289.463.463,0,0,0-.434-.43c-.07,0-.145.07-.215.07C1.727-6.84-1.945-2.3-1.945-.719A1.141,1.141,0,0,0-.648.434c1.8,0,5.762-3.023,8.855-5.258a33.31,33.31,0,0,1,3.457-2.52c.215-.145.359,0,.359.215C11.519-4.895,7.918.793,5.617,3.816l-.5.289-11.16,6.7c-13.824,8.566-20.16,13.75-20.16,16.988A1.609,1.609,0,0,0-24.477,29.445Zm0-.863c-.578,0-.863-.289-.863-.793,0-2.809,6.332-7.992,19.723-16.27,3.242-2.016,6.625-3.961,9.863-5.9L2.52,7.633C-7.488,18.719-20.23,28.582-24.477,28.582Zm0,0" fill="#a73a64" style="fill:#ffffff"></path>
        </g>
      </g>
    </g>
    <g id="Grupo_192" data-name="Grupo 192" style="fill:#ffffff">
      <g id="Grupo_191" data-name="Grupo 191" transform="translate(337.874 178.634)" style="fill:#ffffff">
        <g id="Grupo_190" data-name="Grupo 190" style="fill:#ffffff">
          <path id="Trazado_67" data-name="Trazado 67" d="M9.719.07c2.52,0,9.145-2.734,13.176-5.613a.561.561,0,0,0,.145-.359.339.339,0,0,0-.363-.359c-.141,0-.215,0-.285.07-4.031,3.023-10.441,5.4-12.672,5.4-1.223,0-1.8-.359-1.8-1.293,0-1.371,1.152-3.1,2.016-4.32.5-.723.793-1.152.793-1.441a.491.491,0,0,0-.5-.5c-.359,0-1.223.578-2.734,1.727A1.924,1.924,0,0,0,5.473-7.7c-2.449,0-8.93,4.031-8.93,6.48A1.141,1.141,0,0,0-2.16-.07c2.016,0,6.48-3.312,9.5-5.473.574-.434,1.078-.793,1.438-1.008.145-.145.363-.074.145.145a8.7,8.7,0,0,0-1.8,4.32Q7.129.07,9.719.07ZM-2.16-.937c-.359,0-.5-.07-.5-.285,0-1.73,5.688-5.688,8.137-5.688.789,0,1.008.145,1.293.719C3.816-3.961-.434-.937-2.16-.937Zm0,0" fill="#a73a64" style="fill:#ffffff"></path>
        </g>
      </g>
    </g>
    <g id="Grupo_195" data-name="Grupo 195" clip-path="url(#clip-path)" style="fill:#ffffff">
      <g id="Grupo_194" data-name="Grupo 194" clip-path="url(#clip-path-2)" style="fill:#ffffff">
        <g id="Grupo_193" data-name="Grupo 193" clip-path="url(#clip-path-2)" style="fill:#ffffff">
          <path id="Trazado_68" data-name="Trazado 68" d="M359.8,168.855c.14-.14.281-.289.445-.433a3.719,3.719,0,0,1,.594-.449c.23-.129.387-.344.621-.453s.43-.3.664-.415a1.972,1.972,0,0,1,1.656-.125,1.381,1.381,0,0,1,.8.883,1.516,1.516,0,0,1,.027,1,4.534,4.534,0,0,1-.457.871c-.16.266-.324.52-.5.77a3.068,3.068,0,0,1-.32.4c-.371.391-.746.77-1.109,1.149-.184.187-.379.379-.559.566-.262.274-.523.547-.777.832-.32.352-.621.715-.938,1.055-.425.469-.871.922-1.3,1.387-.183.21-.339.457-.519.679a.406.406,0,0,1-.715-.082c-.2-.445-.371-.906-.562-1.359-.164-.387-.329-.766-.485-1.153a7.934,7.934,0,0,1-.4-1.273c-.082-.4-.25-.777-.371-1.168a3.01,3.01,0,0,1-.168-.969c0-.3-.047-.593-.051-.894s.012-.59.019-.891a4.515,4.515,0,0,1,.379-1.531,2.411,2.411,0,0,1,.774-1.113,1.576,1.576,0,0,1,.9-.309,2.2,2.2,0,0,1,.86.141,1.049,1.049,0,0,1,.578.511,4.1,4.1,0,0,0,.41.6,1.968,1.968,0,0,1,.383.891C359.738,168.277,359.77,168.586,359.8,168.855Zm-1.371-1.511a.349.349,0,0,0,.058-.489c-.16-.187-.285-.425-.59-.363a.544.544,0,0,0-.136.063C358.156,166.672,358.234,167.051,358.43,167.344Zm-1.317,6.492a.325.325,0,0,0-.066.027c.129.36.262.711.4,1.071a.18.18,0,0,0,.055-.016A4.844,4.844,0,0,0,357.113,173.836Zm1.848-2.168a.2.2,0,0,0,.07.008,1.784,1.784,0,0,0,.121-.817l-.047-.011C359.063,171.129,359.012,171.4,358.961,171.668Zm-2.656-4.254c.2-.3.4-.582.6-.883A1.7,1.7,0,0,0,356.3,167.414Zm6.164,1.133c.008.012.011.023.019.035.188-.109.383-.219.567-.328l-.024-.035A1.379,1.379,0,0,0,362.469,168.547Zm-5.3-1.332a.536.536,0,0,0-.063-.035c-.113.2-.222.383-.347.574a.246.246,0,0,0,.043.031C356.938,167.594,357.063,167.4,357.172,167.215Zm6.652,1.824c.02,0,.031,0,.047,0,0-.16-.008-.312-.012-.473-.023,0-.043,0-.062,0C363.895,168.723,363.668,168.883,363.824,169.039Zm-7.172.961c.012-.148.028-.266.039-.4-.011,0-.031,0-.043,0C356.664,169.73,356.531,169.863,356.652,170Zm0,0" fill="#a73a64" style="fill:#ffffff"></path>
        </g>
      </g>
    </g>
    <g id="Grupo_198" data-name="Grupo 198" style="fill:#ffffff">
      <g id="Grupo_197" data-name="Grupo 197" transform="translate(14.602 212.727)" style="fill:#ffffff">
        <g id="Grupo_196" data-name="Grupo 196" style="fill:#ffffff">
          <path id="Trazado_72" data-name="Trazado 72" d="M6.32.105c5.4,0,8.148-3.277,8.148-7.52,0-4.3-2.562-7.371-8.945-7.371-.7,0-2.246.063-3.527.086-.3,0-.883-.024-1.156-.043-.148,0-.168.125,0,.148.945.039,1.531.418,1.531,1.867V-1.973C2.371-.5,1.785-.105.84-.086c-.168,0-.148.148,0,.148C1.113.043,1.7.02,2,.02,3.719.02,5.02.105,6.32.105Zm-.5-.168c-1.2,0-1.426-.211-1.426-.926V-13.777c0-.543.125-.84.672-.84,5.144,0,7.285,3.465,7.285,7.52C12.328-3.129,10.519-.062,5.816-.062Zm0,0" fill="#b46b7a" style="fill:#ffffff"></path>
        </g>
      </g>
    </g>
    <g id="Grupo_201" data-name="Grupo 201" style="fill:#ffffff">
      <g id="Grupo_200" data-name="Grupo 200" transform="translate(29.953 212.727)" style="fill:#ffffff">
        <g id="Grupo_199" data-name="Grupo 199" style="fill:#ffffff">
          <path id="Trazado_73" data-name="Trazado 73" d="M8.191,0a30.773,30.773,0,0,1,3.652.23c.211,0,.355-.082.379-.461a38.666,38.666,0,0,1,.461-5.063c.043-.168-.082-.25-.125-.02C12.117-2.941,11.7-1.848,11-1.2c-.8.754-2.562,1.047-5.965,1.047-.336,0-.648-.187-.648-.984V-7.16c0-.23.082-.566.418-.566.355,0,1.617.02,2.059.063.691.082,1.133.648,1.68,2.457.043.168.148.125.125,0a15.548,15.548,0,0,1-.105-4.914c.023-.148-.082-.191-.125,0-.523,1.785-.883,2.1-1.574,2.184-.441.063-1.7.063-2.059.063-.336,0-.418-.293-.418-.523v-5.461c0-.461.188-.7.5-.7,3.066,0,4.66.129,5.437.988.547.59.859,1.238,1.574,4.223.023.125.125.105.105-.023-.23-1.785-.441-3.633-.484-5.1-.019-.379-.168-.461-.375-.461a29.442,29.442,0,0,1-3.277.231H2c-.3,0-.883-.043-1.137-.062-.145,0-.187.144,0,.144.926.043,1.512.441,1.512,1.891V-1.973C2.371-.523,1.785-.125.859-.086c-.187,0-.145.148,0,.148C1.113.043,1.7,0,2,0Zm0,0" fill="#b46b7a" style="fill:#ffffff"></path>
        </g>
      </g>
    </g>
    <g id="Grupo_204" data-name="Grupo 204" style="fill:#ffffff">
      <g id="Grupo_203" data-name="Grupo 203" transform="translate(47.53 212.727)" style="fill:#ffffff">
        <g id="Grupo_202" data-name="Grupo 202" style="fill:#ffffff">
          <path id="Trazado_74" data-name="Trazado 74" d="M6.781,0a43.628,43.628,0,0,1,4.664.23c.211,0,.273-.125.273-.484A44.4,44.4,0,0,1,12.16-5.84c.019-.125-.106-.168-.149,0C11.7-3.719,11.3-2.352,10.606-1.6,9.766-.672,7.938-.148,5.063-.148c-.441,0-.672-.125-.672-.859V-12.727c0-1.449.648-1.848,1.719-1.891.191,0,.148-.144-.02-.144-.273.019-.945.063-1.281.063H2c-.3,0-.883-.043-1.137-.062-.145,0-.187.144,0,.144.926.043,1.512.441,1.512,1.891V-1.973C2.371-.523,1.785-.125.859-.086c-.187,0-.145.148,0,.148C1.113.043,1.7,0,2,0Zm0,0" fill="#b46b7a" style="fill:#ffffff"></path>
        </g>
      </g>
    </g>
    <g id="Grupo_207" data-name="Grupo 207" style="fill:#ffffff">
      <g id="Grupo_206" data-name="Grupo 206" transform="translate(60.193 212.727)" style="fill:#ffffff">
        <g id="Grupo_205" data-name="Grupo 205" style="fill:#ffffff">
          <path id="Trazado_75" data-name="Trazado 75" d="M14.891-.086c-.715-.039-1.031-.461-1.578-1.8l-5.289-12.6a.28.28,0,0,0-.316-.211H5.754c-.125,0-.168.063-.105.082a.451.451,0,0,1,.273.273l.316.758a1.24,1.24,0,0,1,.02.965L1.785-1.891C1.219-.547.9-.125.188-.086c-.125,0-.1.148,0,.148C.4.043.84,0,1.07,0h.9c.379,0,1.137.043,1.449.063.191,0,.23-.148.023-.148-1.2-.039-2.082-.461-1.512-1.8l.48-1.156v.023a.705.705,0,0,1,.672-.422A16.735,16.735,0,0,0,9.324-4.977a.423.423,0,0,1,.586.105l1.262,2.98c.547,1.344-.293,1.766-1.449,1.8-.211,0-.187.148,0,.148C10.039.043,10.773,0,11.129,0h2.879c.231,0,.672.043.883.063C14.992.063,15.016-.086,14.891-.086ZM9.238-5.125A16.039,16.039,0,0,1,3.109-3.59a.293.293,0,0,1-.3-.379l3.719-8.926L9.555-5.711h-.02A.484.484,0,0,1,9.238-5.125Zm0,0" fill="#b46b7a" style="fill:#ffffff"></path>
        </g>
      </g>
    </g>
    <g id="Grupo_210" data-name="Grupo 210" style="fill:#ffffff">
      <g id="Grupo_209" data-name="Grupo 209" transform="translate(79.66 212.727)" style="fill:#ffffff">
        <g id="Grupo_208" data-name="Grupo 208" style="fill:#ffffff">
          <path id="Trazado_76" data-name="Trazado 76" d="M4.621.316c2.77,0,4.641-1.785,4.641-5.566v-7.477c0-1.449.566-1.848,1.512-1.891.168,0,.148-.144,0-.144-.254.019-.863.063-1.133.063H6.867c-.293,0-.883-.043-1.133-.062-.168,0-.191.144-.023.144.945.043,1.535.441,1.535,1.891v3.7c0,1.809.461,4.2.461,5.418,0,2.457-.59,3.551-2.52,3.551-2.039.02-2.961-2-2.961-3.527A1.723,1.723,0,0,1,3.34-5.437c.125-.043.105-.168-.043-.129C2.1-5.4.547-4.66.547-3,.547-1.262,2.016.316,4.621.316Zm0,0" fill="#b46b7a" style="fill:#ffffff"></path>
        </g>
      </g>
    </g>
    <g id="Grupo_213" data-name="Grupo 213" style="fill:#ffffff">
      <g id="Grupo_212" data-name="Grupo 212" transform="translate(91.189 212.727)" style="fill:#ffffff">
        <g id="Grupo_211" data-name="Grupo 211" style="fill:#ffffff">
          <path id="Trazado_77" data-name="Trazado 77" d="M8.086.316a8.046,8.046,0,0,0,8.293-7.961,7.121,7.121,0,0,0-7.371-7.348A7.962,7.962,0,0,0,.859-7.078,7.041,7.041,0,0,0,8.086.316Zm1.387-.57c-3.719,0-6.762-4.617-6.762-8.859,0-3.32,1.867-5.313,4.934-5.313,3.758,0,6.867,4.492,6.867,8.691C14.512-2.289,12.641-.254,9.473-.254Zm0,0" fill="#b46b7a" style="fill:#ffffff"></path>
        </g>
      </g>
    </g>
    <g id="Grupo_216" data-name="Grupo 216" style="fill:#ffffff">
      <g id="Grupo_215" data-name="Grupo 215" transform="translate(108.43 212.727)" style="fill:#ffffff">
        <g id="Grupo_214" data-name="Grupo 214" style="fill:#ffffff">
          <path id="Trazado_78" data-name="Trazado 78" d="M8.168,0c.3,0,.9.043,1.156.063.148,0,.168-.148,0-.148C8.379-.125,7.813-.523,7.813-1.973L7.789-5.48a1.306,1.306,0,0,1,.172-.672l3.609-6.7c.7-1.281.988-1.723,1.742-1.766.129,0,.106-.144,0-.144-.207.019-.691.063-.922.063h-.9c-.359,0-1.074-.043-1.387-.062-.168,0-.191.144,0,.144,1.133.043,2,.484,1.3,1.766L7.918-6.406c-.086.168-.211.191-.3,0L4.137-12.852c-.691-1.281.168-1.723,1.3-1.766.211,0,.168-.144,0-.144-.312.019-1.027.039-1.363.063H1.133c-.23-.024-.711-.043-.922-.062-.105,0-.148.144,0,.144.754.043,1.051.484,1.742,1.766L5.605-6.133a1.233,1.233,0,0,1,.168.652v3.508C5.8-.523,5.207-.125,4.262-.086c-.168,0-.145.148,0,.148C4.535.043,5.125,0,5.418,0Zm0,0" fill="#b46b7a" style="fill:#ffffff"></path>
        </g>
      </g>
    </g>
    <g id="Grupo_219" data-name="Grupo 219" style="fill:#ffffff">
      <g id="Grupo_218" data-name="Grupo 218" transform="translate(121.933 212.727)" style="fill:#ffffff">
        <g id="Grupo_217" data-name="Grupo 217" style="fill:#ffffff">
          <path id="Trazado_79" data-name="Trazado 79" d="M14.891-.086c-.715-.039-1.031-.461-1.578-1.8l-5.289-12.6a.28.28,0,0,0-.316-.211H5.754c-.125,0-.168.063-.105.082a.451.451,0,0,1,.273.273l.316.758a1.24,1.24,0,0,1,.02.965L1.785-1.891C1.219-.547.9-.125.188-.086c-.125,0-.1.148,0,.148C.4.043.84,0,1.07,0h.9c.379,0,1.137.043,1.449.063.191,0,.23-.148.023-.148-1.2-.039-2.082-.461-1.512-1.8l.48-1.156v.023a.705.705,0,0,1,.672-.422A16.735,16.735,0,0,0,9.324-4.977a.423.423,0,0,1,.586.105l1.262,2.98c.547,1.344-.293,1.766-1.449,1.8-.211,0-.187.148,0,.148C10.039.043,10.773,0,11.129,0h2.879c.231,0,.672.043.883.063C14.992.063,15.016-.086,14.891-.086ZM9.238-5.125A16.039,16.039,0,0,1,3.109-3.59a.293.293,0,0,1-.3-.379l3.719-8.926L9.555-5.711h-.02A.484.484,0,0,1,9.238-5.125Zm0,0" fill="#b46b7a" style="fill:#ffffff"></path>
        </g>
      </g>
    </g>
    <g id="Grupo_222" data-name="Grupo 222" style="fill:#ffffff">
      <g id="Grupo_221" data-name="Grupo 221" transform="translate(141.4 212.727)" style="fill:#ffffff">
        <g id="Grupo_220" data-name="Grupo 220" style="fill:#ffffff">
          <path id="Trazado_80" data-name="Trazado 80" d="M6.613-6.2c4.012.23,6.09-1.531,6.09-4.18,0-2.769-2.016-4.41-5.625-4.41-1.512,0-3.066.063-5.082.086-.3,0-.883-.043-1.137-.043-.168,0-.187.125-.02.148.945.02,1.531.418,1.531,1.867V-1.973C2.371-.523,1.785-.125.859-.086c-.187,0-.145.148,0,.148C1.113.043,1.7,0,2,0h2.9C5.27,0,6.047.043,6.363.063c.211,0,.23-.148.02-.148C5.145-.125,4.391-.523,4.391-1.973V-13.734c0-.652.125-.9.691-.9l1.617.063c2.352.086,3.8,2.1,3.82,4.43A3.486,3.486,0,0,1,6.613-6.363l-1.3-.02c-.125,0-.105.125,0,.145Zm0,0" fill="#b46b7a" style="fill:#ffffff"></path>
        </g>
      </g>
    </g>
    <g id="Grupo_225" data-name="Grupo 225" style="fill:#ffffff">
      <g id="Grupo_224" data-name="Grupo 224" transform="translate(154.588 212.727)" style="fill:#ffffff">
        <g id="Grupo_223" data-name="Grupo 223" style="fill:#ffffff">
          <path id="Trazado_81" data-name="Trazado 81" d="M8.191,0a30.773,30.773,0,0,1,3.652.23c.211,0,.355-.082.379-.461a38.666,38.666,0,0,1,.461-5.063c.043-.168-.082-.25-.125-.02C12.117-2.941,11.7-1.848,11-1.2c-.8.754-2.562,1.047-5.965,1.047-.336,0-.648-.187-.648-.984V-7.16c0-.23.082-.566.418-.566.355,0,1.617.02,2.059.063.691.082,1.133.648,1.68,2.457.043.168.148.125.125,0a15.548,15.548,0,0,1-.105-4.914c.023-.148-.082-.191-.125,0-.523,1.785-.883,2.1-1.574,2.184-.441.063-1.7.063-2.059.063-.336,0-.418-.293-.418-.523v-5.461c0-.461.188-.7.5-.7,3.066,0,4.66.129,5.437.988.547.59.859,1.238,1.574,4.223.023.125.125.105.105-.023-.23-1.785-.441-3.633-.484-5.1-.019-.379-.168-.461-.375-.461a29.442,29.442,0,0,1-3.277.231H2c-.3,0-.883-.043-1.137-.062-.145,0-.187.144,0,.144.926.043,1.512.441,1.512,1.891V-1.973C2.371-.523,1.785-.125.859-.086c-.187,0-.145.148,0,.148C1.113.043,1.7,0,2,0Zm0,0" fill="#b46b7a" style="fill:#ffffff"></path>
        </g>
      </g>
    </g>
    <g id="Grupo_228" data-name="Grupo 228" style="fill:#ffffff">
      <g id="Grupo_227" data-name="Grupo 227" transform="translate(167.776 212.727)" style="fill:#ffffff">
        <g id="Grupo_226" data-name="Grupo 226" style="fill:#ffffff">
          <path id="Trazado_82" data-name="Trazado 82" d="M14.953,1.492c-2.48-1.512-4.6-5.043-5.672-8.82-.043-.105-.105-.168-.211-.148a8.286,8.286,0,0,1-1.047.086c2.77-.379,4.387-1.871,4.387-3.8,0-2.437-1.723-3.594-5.668-3.594-1.406,0-2.836.063-4.746.086-.3,0-.883-.043-1.156-.043-.148,0-.168.125,0,.148.945.02,1.531.418,1.531,1.867V-1.973C2.371-.523,1.785-.125.859-.086c-.187,0-.145.148,0,.148C1.113.043,1.7,0,2,0h2.77c.3,0,.883.043,1.137.063.145,0,.168-.148,0-.148C4.977-.125,4.391-.523,4.391-1.973V-13.859c0-.566.207-.777.711-.758l1.156.043c2.687.086,3.887.988,3.887,3.277,0,2.1-1.156,3.676-3.762,3.844l-.922.02c-.148.02-.148.125,0,.125l1.488.023C8.9-2.582,11.4.168,14.867,1.617,15.016,1.68,15.1,1.574,14.953,1.492Zm0,0" fill="#b46b7a" style="fill:#ffffff"></path>
        </g>
      </g>
    </g>
    <g id="Grupo_231" data-name="Grupo 231" style="fill:#ffffff">
      <g id="Grupo_230" data-name="Grupo 230" transform="translate(181.678 212.727)" style="fill:#ffffff">
        <g id="Grupo_229" data-name="Grupo 229" style="fill:#ffffff">
          <path id="Trazado_83" data-name="Trazado 83" d="M1.512-2.75C1.2-1.262,3.316.316,6.363.316c3.527,0,5.754-1.934,5.754-4.266,0-2.539-2.309-3.758-4.473-4.852-2.141-1.09-3.7-1.953-3.7-3.566,0-1.43.672-2.269,3.066-2.269,3,0,4.242,1.973,3.8,5.4-.023.23.106.25.145.063l.758-3.152c.355-1.637-2.121-2.664-4.223-2.664-3.422,0-5.395,1.91-5.418,3.633C2.059-9.473,3.906-8.336,6.238-7.1c2.035,1.008,3.945,2.141,3.945,4.219,0,2.457-2.1,2.836-3.441,2.836-3.152,0-4.6-1.785-4.266-5.879.023-.293-.082-.273-.145-.043Zm0,0" fill="#b46b7a" style="fill:#ffffff"></path>
        </g>
      </g>
    </g>
    <g id="Grupo_234" data-name="Grupo 234" style="fill:#ffffff">
      <g id="Grupo_233" data-name="Grupo 233" transform="translate(194.866 212.727)" style="fill:#ffffff">
        <g id="Grupo_232" data-name="Grupo 232" style="fill:#ffffff">
          <path id="Trazado_84" data-name="Trazado 84" d="M8.086.316a8.046,8.046,0,0,0,8.293-7.961,7.121,7.121,0,0,0-7.371-7.348A7.962,7.962,0,0,0,.859-7.078,7.041,7.041,0,0,0,8.086.316Zm1.387-.57c-3.719,0-6.762-4.617-6.762-8.859,0-3.32,1.867-5.313,4.934-5.313,3.758,0,6.867,4.492,6.867,8.691C14.512-2.289,12.641-.254,9.473-.254Zm0,0" fill="#b46b7a" style="fill:#ffffff"></path>
        </g>
      </g>
    </g>
    <g id="Grupo_237" data-name="Grupo 237" style="fill:#ffffff">
      <g id="Grupo_236" data-name="Grupo 236" transform="translate(212.107 212.727)" style="fill:#ffffff">
        <g id="Grupo_235" data-name="Grupo 235" style="fill:#ffffff">
          <path id="Trazado_85" data-name="Trazado 85" d="M15.227-14.762c-.254.019-.863.063-1.137.063h-.922c-.3,0-.9-.043-1.156-.062-.148,0-.168.144,0,.144.945.043,1.512.441,1.512,1.891l.023,9.578c0,.1-.043.168-.086.168-.062,0-.125-.043-.187-.148L4.621-14.449a.578.578,0,0,0-.547-.25H2.2l-1.152-.062c-.148,0-.168.125,0,.144a2.009,2.009,0,0,1,1.512.777L2.539-1.973c0,1.449-.566,1.848-1.512,1.887-.168,0-.145.148,0,.148C1.281.043,1.891.02,2.184,0h.926c.273.02.879.043,1.133.063.148,0,.168-.148,0-.148C3.316-.125,2.73-.523,2.73-1.973V-13.336c0-.082.02-.125.082-.125.043,0,.066.02.129.082L13.4.02a.229.229,0,0,0,.211.148c.082,0,.105-.062.105-.148V-12.727c0-1.449.586-1.848,1.512-1.891C15.394-14.617,15.371-14.762,15.227-14.762Zm0,0" fill="#b46b7a" style="fill:#ffffff"></path>
        </g>
      </g>
    </g>
    <g id="Grupo_240" data-name="Grupo 240" style="fill:#ffffff">
      <g id="Grupo_239" data-name="Grupo 239" transform="translate(227.836 212.727)" style="fill:#ffffff">
        <g id="Grupo_238" data-name="Grupo 238" style="fill:#ffffff">
          <path id="Trazado_86" data-name="Trazado 86" d="M14.891-.086c-.715-.039-1.031-.461-1.578-1.8l-5.289-12.6a.28.28,0,0,0-.316-.211H5.754c-.125,0-.168.063-.105.082a.451.451,0,0,1,.273.273l.316.758a1.24,1.24,0,0,1,.02.965L1.785-1.891C1.219-.547.9-.125.188-.086c-.125,0-.1.148,0,.148C.4.043.84,0,1.07,0h.9c.379,0,1.137.043,1.449.063.191,0,.23-.148.023-.148-1.2-.039-2.082-.461-1.512-1.8l.48-1.156v.023a.705.705,0,0,1,.672-.422A16.735,16.735,0,0,0,9.324-4.977a.423.423,0,0,1,.586.105l1.262,2.98c.547,1.344-.293,1.766-1.449,1.8-.211,0-.187.148,0,.148C10.039.043,10.773,0,11.129,0h2.879c.231,0,.672.043.883.063C14.992.063,15.016-.086,14.891-.086ZM9.238-5.125A16.039,16.039,0,0,1,3.109-3.59a.293.293,0,0,1-.3-.379l3.719-8.926L9.555-5.711h-.02A.484.484,0,0,1,9.238-5.125Zm0,0" fill="#b46b7a" style="fill:#ffffff"></path>
        </g>
      </g>
    </g>
    <g id="Grupo_243" data-name="Grupo 243" style="fill:#ffffff">
      <g id="Grupo_242" data-name="Grupo 242" transform="translate(242.914 212.727)" style="fill:#ffffff">
        <g id="Grupo_241" data-name="Grupo 241" style="fill:#ffffff">
          <path id="Trazado_87" data-name="Trazado 87" d="M6.781,0a43.628,43.628,0,0,1,4.664.23c.211,0,.273-.125.273-.484A44.4,44.4,0,0,1,12.16-5.84c.019-.125-.106-.168-.149,0C11.7-3.719,11.3-2.352,10.606-1.6,9.766-.672,7.938-.148,5.063-.148c-.441,0-.672-.125-.672-.859V-12.727c0-1.449.648-1.848,1.719-1.891.191,0,.148-.144-.02-.144-.273.019-.945.063-1.281.063H2c-.3,0-.883-.043-1.137-.062-.145,0-.187.144,0,.144.926.043,1.512.441,1.512,1.891V-1.973C2.371-.523,1.785-.125.859-.086c-.187,0-.145.148,0,.148C1.113.043,1.7,0,2,0Zm0,0" fill="#b46b7a" style="fill:#ffffff"></path>
        </g>
      </g>
    </g>
    <g id="Grupo_246" data-name="Grupo 246" style="fill:#ffffff">
      <g id="Grupo_245" data-name="Grupo 245" transform="translate(259.967 212.727)" style="fill:#ffffff">
        <g id="Grupo_244" data-name="Grupo 244" style="fill:#ffffff">
          <path id="Trazado_88" data-name="Trazado 88" d="M1.512-2.75C1.2-1.262,3.316.316,6.363.316c3.527,0,5.754-1.934,5.754-4.266,0-2.539-2.309-3.758-4.473-4.852-2.141-1.09-3.7-1.953-3.7-3.566,0-1.43.672-2.269,3.066-2.269,3,0,4.242,1.973,3.8,5.4-.023.23.106.25.145.063l.758-3.152c.355-1.637-2.121-2.664-4.223-2.664-3.422,0-5.395,1.91-5.418,3.633C2.059-9.473,3.906-8.336,6.238-7.1c2.035,1.008,3.945,2.141,3.945,4.219,0,2.457-2.1,2.836-3.441,2.836-3.152,0-4.6-1.785-4.266-5.879.023-.293-.082-.273-.145-.043Zm0,0" fill="#b46b7a" style="fill:#ffffff"></path>
        </g>
      </g>
    </g>
    <g id="Grupo_249" data-name="Grupo 249" style="fill:#ffffff">
      <g id="Grupo_248" data-name="Grupo 248" transform="translate(273.155 212.727)" style="fill:#ffffff">
        <g id="Grupo_247" data-name="Grupo 247" style="fill:#ffffff">
          <path id="Trazado_89" data-name="Trazado 89" d="M15.664-.086c-.941-.039-1.512-.438-1.512-1.887V-12.727c0-1.449.57-1.848,1.512-1.891.172,0,.148-.144,0-.144-.25.019-.859.063-1.152.063h-2.75c-.3,0-.883-.043-1.156-.062-.149,0-.168.144,0,.144.945.043,1.512.441,1.512,1.891v3.844a.526.526,0,0,1-.379.566,20.953,20.953,0,0,1-7.012,1.66.281.281,0,0,1-.336-.254v-5.816c0-1.449.586-1.848,1.512-1.891.168,0,.145-.144,0-.144-.254.019-.84.063-1.137.063H2c-.3,0-.883-.043-1.137-.062-.145,0-.187.144,0,.144.926.043,1.512.441,1.512,1.891V-1.973C2.371-.523,1.785-.125.859-.086c-.187,0-.145.148,0,.148C1.113.043,1.7,0,2,0h2.77c.3,0,.883.043,1.137.063.145,0,.168-.148,0-.148C4.977-.125,4.391-.523,4.391-1.973V-5.984c0-.254.039-.5.355-.527a20.666,20.666,0,0,0,7.016-1.656c.293-.129.356.039.356.293v5.9c0,1.449-.566,1.848-1.512,1.887-.168,0-.149.148,0,.148C10.879.043,11.465,0,11.762,0h2.75c.293,0,.9.043,1.152.063C15.813.063,15.836-.086,15.664-.086Zm0,0" fill="#b46b7a" style="fill:#ffffff"></path>
        </g>
      </g>
    </g>
    <g id="Grupo_252" data-name="Grupo 252" style="fill:#ffffff">
      <g id="Grupo_251" data-name="Grupo 251" transform="translate(289.682 212.727)" style="fill:#ffffff">
        <g id="Grupo_250" data-name="Grupo 250" style="fill:#ffffff">
          <path id="Trazado_90" data-name="Trazado 90" d="M8.086.316a8.046,8.046,0,0,0,8.293-7.961,7.121,7.121,0,0,0-7.371-7.348A7.962,7.962,0,0,0,.859-7.078,7.041,7.041,0,0,0,8.086.316Zm1.387-.57c-3.719,0-6.762-4.617-6.762-8.859,0-3.32,1.867-5.313,4.934-5.313,3.758,0,6.867,4.492,6.867,8.691C14.512-2.289,12.641-.254,9.473-.254Zm0,0" fill="#b46b7a" style="fill:#ffffff"></path>
        </g>
      </g>
    </g>
    <g id="Grupo_255" data-name="Grupo 255" style="fill:#ffffff">
      <g id="Grupo_254" data-name="Grupo 254" transform="translate(306.923 212.727)" style="fill:#ffffff">
        <g id="Grupo_253" data-name="Grupo 253" style="fill:#ffffff">
          <path id="Trazado_91" data-name="Trazado 91" d="M6.613-6.2c4.012.23,6.09-1.531,6.09-4.18,0-2.769-2.016-4.41-5.625-4.41-1.512,0-3.066.063-5.082.086-.3,0-.883-.043-1.137-.043-.168,0-.187.125-.02.148.945.02,1.531.418,1.531,1.867V-1.973C2.371-.523,1.785-.125.859-.086c-.187,0-.145.148,0,.148C1.113.043,1.7,0,2,0h2.9C5.27,0,6.047.043,6.363.063c.211,0,.23-.148.02-.148C5.145-.125,4.391-.523,4.391-1.973V-13.734c0-.652.125-.9.691-.9l1.617.063c2.352.086,3.8,2.1,3.82,4.43A3.486,3.486,0,0,1,6.613-6.363l-1.3-.02c-.125,0-.105.125,0,.145Zm0,0" fill="#b46b7a" style="fill:#ffffff"></path>
        </g>
      </g>
    </g>
    <g id="Grupo_258" data-name="Grupo 258" style="fill:#ffffff">
      <g id="Grupo_257" data-name="Grupo 257" transform="translate(320.111 212.727)" style="fill:#ffffff">
        <g id="Grupo_256" data-name="Grupo 256" style="fill:#ffffff">
          <path id="Trazado_92" data-name="Trazado 92" d="M6.613-6.2c4.012.23,6.09-1.531,6.09-4.18,0-2.769-2.016-4.41-5.625-4.41-1.512,0-3.066.063-5.082.086-.3,0-.883-.043-1.137-.043-.168,0-.187.125-.02.148.945.02,1.531.418,1.531,1.867V-1.973C2.371-.523,1.785-.125.859-.086c-.187,0-.145.148,0,.148C1.113.043,1.7,0,2,0h2.9C5.27,0,6.047.043,6.363.063c.211,0,.23-.148.02-.148C5.145-.125,4.391-.523,4.391-1.973V-13.734c0-.652.125-.9.691-.9l1.617.063c2.352.086,3.8,2.1,3.82,4.43A3.486,3.486,0,0,1,6.613-6.363l-1.3-.02c-.125,0-.105.125,0,.145Zm0,0" fill="#b46b7a" style="fill:#ffffff"></path>
        </g>
      </g>
    </g>
    <g id="Grupo_261" data-name="Grupo 261" style="fill:#ffffff">
      <g id="Grupo_260" data-name="Grupo 260" transform="translate(333.299 212.727)" style="fill:#ffffff">
        <g id="Grupo_259" data-name="Grupo 259" style="fill:#ffffff">
          <path id="Trazado_93" data-name="Trazado 93" d="M8.191,0a30.773,30.773,0,0,1,3.652.23c.211,0,.355-.082.379-.461a38.666,38.666,0,0,1,.461-5.063c.043-.168-.082-.25-.125-.02C12.117-2.941,11.7-1.848,11-1.2c-.8.754-2.562,1.047-5.965,1.047-.336,0-.648-.187-.648-.984V-7.16c0-.23.082-.566.418-.566.355,0,1.617.02,2.059.063.691.082,1.133.648,1.68,2.457.043.168.148.125.125,0a15.548,15.548,0,0,1-.105-4.914c.023-.148-.082-.191-.125,0-.523,1.785-.883,2.1-1.574,2.184-.441.063-1.7.063-2.059.063-.336,0-.418-.293-.418-.523v-5.461c0-.461.188-.7.5-.7,3.066,0,4.66.129,5.437.988.547.59.859,1.238,1.574,4.223.023.125.125.105.105-.023-.23-1.785-.441-3.633-.484-5.1-.019-.379-.168-.461-.375-.461a29.442,29.442,0,0,1-3.277.231H2c-.3,0-.883-.043-1.137-.062-.145,0-.187.144,0,.144.926.043,1.512.441,1.512,1.891V-1.973C2.371-.523,1.785-.125.859-.086c-.187,0-.145.148,0,.148C1.113.043,1.7,0,2,0Zm0,0" fill="#b46b7a" style="fill:#ffffff"></path>
        </g>
      </g>
    </g>
    <g id="Grupo_264" data-name="Grupo 264" style="fill:#ffffff">
      <g id="Grupo_263" data-name="Grupo 263" transform="translate(346.487 212.727)" style="fill:#ffffff">
        <g id="Grupo_262" data-name="Grupo 262" style="fill:#ffffff">
          <path id="Trazado_94" data-name="Trazado 94" d="M14.953,1.492c-2.48-1.512-4.6-5.043-5.672-8.82-.043-.105-.105-.168-.211-.148a8.286,8.286,0,0,1-1.047.086c2.77-.379,4.387-1.871,4.387-3.8,0-2.437-1.723-3.594-5.668-3.594-1.406,0-2.836.063-4.746.086-.3,0-.883-.043-1.156-.043-.148,0-.168.125,0,.148.945.02,1.531.418,1.531,1.867V-1.973C2.371-.523,1.785-.125.859-.086c-.187,0-.145.148,0,.148C1.113.043,1.7,0,2,0h2.77c.3,0,.883.043,1.137.063.145,0,.168-.148,0-.148C4.977-.125,4.391-.523,4.391-1.973V-13.859c0-.566.207-.777.711-.758l1.156.043c2.687.086,3.887.988,3.887,3.277,0,2.1-1.156,3.676-3.762,3.844l-.922.02c-.148.02-.148.125,0,.125l1.488.023C8.9-2.582,11.4.168,14.867,1.617,15.016,1.68,15.1,1.574,14.953,1.492Zm0,0" fill="#b46b7a" style="fill:#ffffff"></path>
        </g>
      </g>
    </g>
    <g id="Grupo_267" data-name="Grupo 267" style="fill:#ffffff">
      <g id="Grupo_266" data-name="Grupo 266" transform="translate(106.216 239.583)" style="fill:#ffffff">
        <g id="Grupo_265" data-name="Grupo 265" style="fill:#ffffff">
          <path id="Trazado_95" data-name="Trazado 95" d="M.465-.945C.3-.406,1.359.145,2.449.145,3.938.145,4.91-.527,4.91-1.566c0-.969-.812-1.5-1.59-1.984C2.5-4.062,1.984-4.426,1.984-4.984c0-.434.184-.641.77-.641A1.8,1.8,0,0,1,4.32-3.535c0,.086.047.094.063.023l.418-1.3c.168-.551-.953-.926-1.738-.926-1.4,0-2.391.711-2.391,1.512,0,.75.7,1.27,1.586,1.848.652.414,1.285.871,1.285,1.6,0,.641-.465.816-.91.816C1.559.031.961-.945,1.016-2.426c0-.086-.039-.086-.063-.016Zm0,0" fill="#a73a64" style="fill:#ffffff"></path>
        </g>
      </g>
    </g>
    <g id="Grupo_270" data-name="Grupo 270" style="fill:#ffffff">
      <g id="Grupo_269" data-name="Grupo 269" transform="translate(117.816 239.583)" style="fill:#ffffff">
        <g id="Grupo_268" data-name="Grupo 268" style="fill:#ffffff">
          <path id="Trazado_96" data-name="Trazado 96" d="M5.543-3.594a9.527,9.527,0,0,1-.07-1.9c.008-.16-.066-.223-.184-.223A13.132,13.132,0,0,1,3.566-5.6H2.145a13.334,13.334,0,0,1-1.73-.117c-.117,0-.191.063-.176.223a11.114,11.114,0,0,1-.078,1.9c-.008.066.047.082.07.02C.586-4.7.984-5.312,1.457-5.473a1.529,1.529,0,0,1,.551-.062c.1,0,.137.176.137.3v4.16c0,.758-.367,1.023-.793,1.031-.105,0-.086.07,0,.07.168-.008.5-.023.7-.023H3.656c.2,0,.535.016.7.023.09,0,.1-.07,0-.07-.422-.008-.793-.273-.793-1.031v-4.16c0-.121.035-.3.129-.3a1.527,1.527,0,0,1,.555.063c.469.152.855.746,1.23,1.9C5.5-3.512,5.551-3.527,5.543-3.594Zm0,0" fill="#a73a64" style="fill:#ffffff"></path>
        </g>
      </g>
    </g>
    <g id="Grupo_273" data-name="Grupo 273" style="fill:#ffffff">
      <g id="Grupo_272" data-name="Grupo 272" transform="translate(129.921 239.583)" style="fill:#ffffff">
        <g id="Grupo_271" data-name="Grupo 271" style="fill:#ffffff">
          <path id="Trazado_97" data-name="Trazado 97" d="M5.945-.047c-.227-.008-.4-.273-.687-.977L3.434-5.488A.155.155,0,0,0,3.258-5.6H1.793c-.051,0-.059.043-.016.051a.2.2,0,0,1,.176.133L2.121-5a.735.735,0,0,1,.039.535L.762-1.023C.48-.32.3-.055.078-.047a.035.035,0,1,0,0,.07C.168.016.352,0,.457,0h.2c.191,0,.527.016.7.023.09,0,.1-.07,0-.07C.93-.055.551-.32.832-1.023l.031-.082V-1.1a.2.2,0,0,1,.191-.133,6.991,6.991,0,0,0,2.219-.5.148.148,0,0,1,.184.016l.285.7c.289.7-.07.969-.469.977-.09,0-.082.07.008.07C3.434.016,3.754,0,3.938,0H5.566c.105,0,.281.016.379.023A.035.035,0,1,0,5.945-.047ZM3.25-1.809a6.237,6.237,0,0,1-2.18.5C.984-1.3.977-1.352,1-1.434L2.289-4.6,3.352-1.992H3.344C3.375-1.937,3.328-1.848,3.25-1.809Zm0,0" fill="#a73a64" style="fill:#ffffff"></path>
        </g>
      </g>
    </g>
    <g id="Grupo_276" data-name="Grupo 276" style="fill:#ffffff">
      <g id="Grupo_275" data-name="Grupo 275" transform="translate(142.345 239.583)" style="fill:#ffffff">
        <g id="Grupo_274" data-name="Grupo 274" style="fill:#ffffff">
          <path id="Trazado_98" data-name="Trazado 98" d="M.8,0c.664.008,1.457.055,2.23.055,1.7,0,2.6-.59,2.6-1.672,0-.934-.785-1.391-1.922-1.445.961-.105,1.457-.547,1.457-1.328,0-.641-.594-1.266-2.176-1.266-.48,0-1.609.047-2.191.055-.145,0-.395-.008-.512-.016-.074,0-.082.066-.008.066.313.008.582.27.582,1.031v3.441C.863-.32.6-.055.281-.047c-.074,0-.066.07.008.063C.406.008.656,0,.8,0ZM2.5-3.09c-.055.012-.055.066.008.066l.223.008c.906.008,1.219.641,1.219,1.582,0,.969-.5,1.418-1.121,1.418H2.586c-.25,0-.3-.082-.3-.352V-5.375c0-.16.023-.211.152-.211l.238.02c.449.008.938.383.938,1.293,0,.785-.312,1.121-.891,1.176Zm0,0" fill="#a73a64" style="fill:#ffffff"></path>
        </g>
      </g>
    </g>
    <g id="Grupo_279" data-name="Grupo 279" style="fill:#ffffff">
      <g id="Grupo_278" data-name="Grupo 278" transform="translate(154.609 239.583)" style="fill:#ffffff">
        <g id="Grupo_277" data-name="Grupo 277" style="fill:#ffffff">
          <path id="Trazado_99" data-name="Trazado 99" d="M2.871,0c.977,0,1.7.113,1.832.113.113,0,.129-.059.121-.227a19.744,19.744,0,0,1,.137-2.551c.008-.062-.059-.09-.074-.008A3.546,3.546,0,0,1,4.223-1a2.187,2.187,0,0,1-1.648.93c-.223,0-.285-.082-.285-.379V-4.52c0-.762.277-1.023.605-1.031.082,0,.074-.074,0-.074-.125.008-.391.023-.543.023H.8c-.145,0-.395-.016-.512-.023-.066,0-.082.074,0,.074.313.008.574.27.574,1.031v3.441C.863-.32.6-.055.289-.047c-.082,0-.066.07,0,.07C.406.016.656,0,.8,0Zm0,0" fill="#a73a64" style="fill:#ffffff"></path>
        </g>
      </g>
    </g>
    <g id="Grupo_282" data-name="Grupo 282" style="fill:#ffffff">
      <g id="Grupo_281" data-name="Grupo 281" transform="translate(166.097 239.583)" style="fill:#ffffff">
        <g id="Grupo_280" data-name="Grupo 280" style="fill:#ffffff">
          <path id="Trazado_100" data-name="Trazado 100" d="M.863-1.078C.863-.32.6-.055.289-.047c-.082,0-.066.07,0,.07C.406.016.656,0,.8,0H2.352c.145,0,.391.016.52.023.066,0,.074-.07,0-.07-.312-.008-.582-.273-.582-1.031V-4.52c0-.762.27-1.023.582-1.031.074,0,.066-.074,0-.074-.129.008-.375.023-.52.023H.8c-.145,0-.395-.016-.512-.023-.066,0-.082.074,0,.074.313.008.574.27.574,1.031Zm0,0" fill="#a73a64" style="fill:#ffffff"></path>
        </g>
      </g>
    </g>
    <g id="Grupo_285" data-name="Grupo 285" style="fill:#ffffff">
      <g id="Grupo_284" data-name="Grupo 284" transform="translate(175.658 239.583)" style="fill:#ffffff">
        <g id="Grupo_283" data-name="Grupo 283" style="fill:#ffffff">
          <path id="Trazado_101" data-name="Trazado 101" d="M.465-.945C.3-.406,1.359.145,2.449.145,3.938.145,4.91-.527,4.91-1.566c0-.969-.812-1.5-1.59-1.984C2.5-4.062,1.984-4.426,1.984-4.984c0-.434.184-.641.77-.641A1.8,1.8,0,0,1,4.32-3.535c0,.086.047.094.063.023l.418-1.3c.168-.551-.953-.926-1.738-.926-1.4,0-2.391.711-2.391,1.512,0,.75.7,1.27,1.586,1.848.652.414,1.285.871,1.285,1.6,0,.641-.465.816-.91.816C1.559.031.961-.945,1.016-2.426c0-.086-.039-.086-.063-.016Zm0,0" fill="#a73a64" style="fill:#ffffff"></path>
        </g>
      </g>
    </g>
    <g id="Grupo_288" data-name="Grupo 288" style="fill:#ffffff">
      <g id="Grupo_287" data-name="Grupo 287" transform="translate(187.258 239.583)" style="fill:#ffffff">
        <g id="Grupo_286" data-name="Grupo 286" style="fill:#ffffff">
          <path id="Trazado_102" data-name="Trazado 102" d="M6.527-.047c-.312-.008-.582-.273-.582-1.031V-4.52c0-.762.27-1.023.582-1.031.074,0,.066-.074,0-.074-.129.008-.375.023-.52.023H4.457c-.145,0-.395-.016-.512-.023-.074,0-.082.074-.008.074.32.008.582.27.582,1.031v1.176a.211.211,0,0,1-.145.207A5.58,5.58,0,0,1,2.4-2.586c-.086.012-.109-.039-.109-.125V-4.52c0-.762.27-1.023.582-1.031.074,0,.066-.074,0-.074-.129.008-.375.023-.52.023H.8c-.145,0-.395-.016-.512-.023-.066,0-.082.074,0,.074.313.008.574.27.574,1.031v3.441C.863-.32.6-.055.289-.047c-.082,0-.066.07,0,.07C.406.016.656,0,.8,0H2.352c.145,0,.391.016.52.023.066,0,.074-.07,0-.07-.312-.008-.582-.273-.582-1.031v-1.25c0-.09.023-.176.109-.184a5.84,5.84,0,0,0,2-.559c.09-.051.121.008.121.1v1.891c0,.758-.262,1.023-.582,1.031-.074,0-.066.07.008.07C4.063.016,4.313,0,4.457,0H6.008c.145,0,.391.016.52.023C6.594.023,6.6-.047,6.527-.047Zm0,0" fill="#a73a64" style="fill:#ffffff"></path>
        </g>
      </g>
    </g>
    <g id="Grupo_291" data-name="Grupo 291" style="fill:#ffffff">
      <g id="Grupo_290" data-name="Grupo 290" transform="translate(200.466 239.583)" style="fill:#ffffff">
        <g id="Grupo_289" data-name="Grupo 289" style="fill:#ffffff">
          <path id="Trazado_103" data-name="Trazado 103" d="M3.281,0A12.4,12.4,0,0,1,4.863.121c.121-.008.176-.066.176-.227a17.327,17.327,0,0,1,.168-2.133c.016-.051-.031-.1-.055-.012A3.091,3.091,0,0,1,4.375-.734,2.517,2.517,0,0,1,2.566-.07c-.2,0-.277-.145-.277-.473V-2.687c0-.1.031-.242.168-.242.094,0,.352.008.445.02.32.039.586.359.816,1.047.023.063.074.047.066,0a8.119,8.119,0,0,1-.043-2.113c.012-.055-.039-.07-.062,0-.215.688-.457.922-.777.961C2.809-3.008,2.551-3,2.457-3c-.137,0-.168-.145-.168-.238V-5.184c0-.176.055-.344.254-.344a1.959,1.959,0,0,1,1.609.6A4.568,4.568,0,0,1,4.969-3.3c.023.047.063.023.055-.016C4.93-4.176,4.863-4.9,4.84-5.5c-.008-.16-.062-.223-.184-.223A12.445,12.445,0,0,1,3.184-5.6H.8c-.145,0-.395-.016-.512-.023-.066,0-.082.074,0,.074.313.008.574.27.574,1.031v3.441C.863-.32.6-.055.289-.047c-.082,0-.066.07,0,.07C.406.016.656,0,.8,0Zm0,0" fill="#a73a64" style="fill:#ffffff"></path>
        </g>
      </g>
    </g>
    <g id="Grupo_294" data-name="Grupo 294" style="fill:#ffffff">
      <g id="Grupo_293" data-name="Grupo 293" transform="translate(212.203 239.583)" style="fill:#ffffff">
        <g id="Grupo_292" data-name="Grupo 292" style="fill:#ffffff">
          <path id="Trazado_104" data-name="Trazado 104" d="M2.93.063A2.857,2.857,0,0,0,6-2.832c0-1.441-.824-2.832-3.238-2.832C2.352-5.664,1.23-5.6.8-5.6.656-5.609.406-5.609.289-5.617c-.074-.008-.082.066,0,.066.313.008.574.27.574,1.031V-1.07C.863-.32.6-.055.289-.047c-.082,0-.074.07,0,.07L.8,0C1.406,0,2.168.063,2.93.063Zm-.242-.07c-.3,0-.4-.082-.4-.336V-5.281c0-.191.063-.3.223-.3,1.383,0,1.984,1.5,1.977,2.977C4.473-1.223,3.945-.008,2.688-.008Zm0,0" fill="#a73a64" style="fill:#ffffff"></path>
        </g>
      </g>
    </g>
    <g id="Grupo_297" data-name="Grupo 297" style="fill:#ffffff">
      <g id="Grupo_296" data-name="Grupo 296" transform="translate(233.259 239.583)" style="fill:#ffffff">
        <g id="Grupo_295" data-name="Grupo 295" style="fill:#ffffff">
          <path id="Trazado_105" data-name="Trazado 105" d="M.566-4.6a1.4,1.4,0,0,1,1.328-.766A1.232,1.232,0,0,1,3.176-4.008c0,.832-.641,1.895-2.086,3.031L.281-.266C.184-.184.16-.137.16-.1c0,.059.039.1.168.1h3.2A5.042,5.042,0,0,1,4.574.137c.074,0,.082-.082.082-.273a10.411,10.411,0,0,1,.137-2.1c.008-.043,0-.059-.023-.059s-.043.016-.051.047c-.176.723-.312.875-.984.969l-2.391.242,1.7-1.051a2.5,2.5,0,0,0,1.57-2.055c0-.953-.914-1.543-2.059-1.543A2.221,2.221,0,0,0,.5-4.625C.457-4.535.535-4.535.566-4.6Zm0,0" fill="#a73a64" style="fill:#ffffff"></path>
        </g>
      </g>
    </g>
    <g id="Grupo_300" data-name="Grupo 300" style="fill:#ffffff">
      <g id="Grupo_299" data-name="Grupo 299" transform="translate(244.587 239.583)" style="fill:#ffffff">
        <g id="Grupo_298" data-name="Grupo 298" style="fill:#ffffff">
          <path id="Trazado_106" data-name="Trazado 106" d="M2.727.137A2.564,2.564,0,0,0,5.313-2.734c0-1.746-.969-3-2.473-3A2.583,2.583,0,0,0,.258-2.871C.258-1.121,1.223.137,2.727.137ZM3.3-.047c-.914,0-1.871-2.672-1.871-4.129,0-.906.262-1.383.871-1.383.895,0,1.84,2.688,1.84,4.125C4.137-.5,3.887-.047,3.3-.047Zm0,0" fill="#a73a64" style="fill:#ffffff"></path>
        </g>
      </g>
    </g>
    <g id="Grupo_303" data-name="Grupo 303" style="fill:#ffffff">
      <g id="Grupo_302" data-name="Grupo 302" transform="translate(256.556 239.583)" style="fill:#ffffff">
        <g id="Grupo_301" data-name="Grupo 301" style="fill:#ffffff">
          <path id="Trazado_107" data-name="Trazado 107" d="M2.113-3.887c0-1.1.078-1.473.078-1.746,0-.07-.031-.094-.078-.094A3.632,3.632,0,0,1,.176-4.609C.1-4.6.1-4.535.184-4.535c.551-.074.609.008.609.336v3.137c0,.789-.176,1.016-.5,1.008-.066,0-.066.07-.008.07.375-.023,1.957-.023,2.352,0,.055.008.055-.07,0-.07-.336-.008-.52-.227-.52-1Zm0,0" fill="#a73a64" style="fill:#ffffff"></path>
        </g>
      </g>
    </g>
    <g id="Grupo_306" data-name="Grupo 306" style="fill:#ffffff">
      <g id="Grupo_305" data-name="Grupo 305" transform="translate(265.86 239.583)" style="fill:#ffffff">
        <g id="Grupo_304" data-name="Grupo 304" style="fill:#ffffff">
          <path id="Trazado_108" data-name="Trazado 108" d="M2.113-3.887c0-1.1.078-1.473.078-1.746,0-.07-.031-.094-.078-.094A3.632,3.632,0,0,1,.176-4.609C.1-4.6.1-4.535.184-4.535c.551-.074.609.008.609.336v3.137c0,.789-.176,1.016-.5,1.008-.066,0-.066.07-.008.07.375-.023,1.957-.023,2.352,0,.055.008.055-.07,0-.07-.336-.008-.52-.227-.52-1Zm0,0" fill="#a73a64" style="fill:#ffffff"></path>
        </g>
      </g>
    </g>
  </g>
</svg>
